<?xml version="1.0" encoding="UTF-8" standalone="no"?>
<!-- Created with Inkscape (http://www.inkscape.org/) -->

<svg
   version="1.1"
   id="svg1394"
   width="800"
   height="800"
   viewBox="0 0 800 800"
   sodipodi:docname="desert-cactuses-publicdomainvectors.org.svg"
   inkscape:version="1.2 (dc2aedaf03, 2022-05-15)"
   xmlns:inkscape="http://www.inkscape.org/namespaces/inkscape"
   xmlns:sodipodi="http://sodipodi.sourceforge.net/DTD/sodipodi-0.dtd"
   xmlns="http://www.w3.org/2000/svg"
   xmlns:svg="http://www.w3.org/2000/svg">
  <defs
     id="defs1398">
    <clipPath
       clipPathUnits="userSpaceOnUse"
       id="clipPath1412">
      <path
         d="M 0,600 H 600 V 0 H 0 Z"
         id="path1410" />
    </clipPath>
  </defs>
  <sodipodi:namedview
     id="namedview1396"
     pagecolor="#ffffff"
     bordercolor="#000000"
     borderopacity="0.25"
     inkscape:showpageshadow="2"
     inkscape:pageopacity="0.0"
     inkscape:pagecheckerboard="0"
     inkscape:deskcolor="#d1d1d1"
     showgrid="false"
     inkscape:zoom="1.04625"
     inkscape:cx="399.5221"
     inkscape:cy="400.4779"
     inkscape:window-width="1920"
     inkscape:window-height="1017"
     inkscape:window-x="-8"
     inkscape:window-y="-8"
     inkscape:window-maximized="1"
     inkscape:current-layer="g1402">
    <inkscape:page
       x="0"
       y="0"
       id="page1400"
       width="800"
       height="800" />
  </sodipodi:namedview>
  <g
     id="g1402"
     inkscape:groupmode="layer"
     inkscape:label="Page 1"
     transform="matrix(1.3333333,0,0,-1.3333333,0,800)">
    <path
       d="M 0,0.584 H 599.416 V 600 H 0 Z"
       style="fill:#fab40a;fill-opacity:1;fill-rule:nonzero;stroke:none"
       id="path1404" />
    <g
       id="g1406">
      <g
         id="g1408"
         clip-path="url(#clipPath1412)">
        <g
           id="g1414"
           transform="translate(299.708,201.8584)">
          <path
             d="m 0,0 c 83.005,0 150.705,67.701 150.705,150.707 0,83.005 -67.7,150.706 -150.705,150.706 -83.006,0 -150.706,-67.701 -150.706,-150.706 C -150.706,67.701 -83.006,0 0,0"
             style="fill:#faf462;fill-opacity:1;fill-rule:evenodd;stroke:none"
             id="path1416" />
        </g>
        <path
           d="M 0,0.584 H 599.416 V 269.255 H 0 Z"
           style="fill:#914c1c;fill-opacity:1;fill-rule:evenodd;stroke:none"
           id="path1418" />
        <g
           id="g1420"
           transform="translate(0,300.292)">
          <path
             d="m 0,0 18.192,4.875 8.516,38.038 11.233,31.825 2.808,5.617 3.744,34.634 v 2.808 l 22.465,16.849 h 46.804 L 133.954,99.674 135.291,61.634 146.524,27 169.926,4.534 h 29.018 l 28.549,28.549 20.125,30.422 -2.808,25.274 16.849,24.338 h 25.274 L 313.644,66.854 V 18.575 l 16.948,-29.357 45.192,-12.109 39.224,10.509 20.758,40.317 25.273,39.315 7.49,70.205 19.656,47.738 h 61.78 l 20.594,-33.697 -3.744,-45.868 19.657,-69.268 12.944,-20.593 V -31.037 L 0,-31.037 Z"
             style="fill:#d06b1c;fill-opacity:1;fill-rule:evenodd;stroke:none"
             id="path1422" />
        </g>
        <g
           id="g1424"
           transform="translate(415.0078,287.9102)">
          <path
             d="m 0,0 18.185,42.19 26.327,38.963 5.5,70.322 23.166,46.1 h 61.779 L 78.443,189.152 59.255,148.434 53.637,78.229 26.491,38.446 Z"
             style="fill:#faf462;fill-opacity:1;fill-rule:evenodd;stroke:none"
             id="path1426" />
        </g>
        <g
           id="g1428"
           transform="translate(66.9585,434.938)">
          <path
             d="m 0,0 h 46.804 l 21.713,-33.568 1.22,-38.508 9.829,-35.57 23.039,-22.119 0.128,-0.582 0.234,0.235 -26.444,21.997 -12.871,34.283 -1.287,37.911 -17.434,32.878 z"
             style="fill:#faf462;fill-opacity:1;fill-rule:evenodd;stroke:none"
             id="path1430" />
        </g>
        <g
           id="g1432"
           transform="translate(324.7227,269.2549)">
          <path
             d="M 0,0 -25.015,31.037 -57.099,43.528 -64.587,63.185 -80.969,61.78 -95.946,33.231 -117.942,21.53 -139.94,0 1.873,-31.356 Z m 138.538,0 46.803,36.04 2.341,32.761 v 1.872 l 20.593,33.23 14.04,58.036 11.232,0.469 3.277,-39.783 V 71.142 L 253.673,42.592 267.246,0 171.301,-9.828 Z M -276.369,39.783 -291.346,0 l 36.975,-16.849 h 1.404 L -188.848,0 l -42.59,18.722 0.467,3.276 5.617,40.25 v 1.404 l -15.445,29.018 0.936,29.487 -21.061,15.445 -14.509,-29.486 13.105,-36.975 z"
             style="fill:#914c1c;fill-opacity:1;fill-rule:evenodd;stroke:none"
             id="path1434" />
        </g>
        <path
           d="M 0,0.584 H 599.416 V 147.567 H 0 Z"
           style="fill:#5f3516;fill-opacity:1;fill-rule:evenodd;stroke:none"
           id="path1436" />
        <g
           id="g1438"
           transform="translate(514.2295,390.2407)">
          <path
             d="M 0,0 V 0 C 11.589,0 21.07,-9.481 21.07,-21.07 V -271.693 H -21.069 V -21.07 C -21.069,-9.481 -11.588,0 0,0"
             style="fill:#5f3516;fill-opacity:1;fill-rule:evenodd;stroke:none"
             id="path1440" />
        </g>
        <g
           id="g1442"
           transform="translate(514.2295,390.4023)">
          <path
             d="M 0,0 C 2.108,0 4.203,-0.477 6.216,-1.103 -5.241,-1.804 -14.905,-9.984 -15.166,-19.35 l -5.903,-212.017 -0.41,210.136 C -21.5,-9.642 -11.588,0 0,0"
             style="fill:#faf462;fill-opacity:1;fill-rule:evenodd;stroke:none"
             id="path1444" />
        </g>
        <g
           id="g1446"
           transform="translate(518.7207,279.0273)">
          <path
             d="m 0,0 h 45.139 v 43.372 c 0,5.735 4.691,10.425 10.425,10.425 5.735,0 10.426,-4.692 10.426,-10.425 V -9.662 c 0,-7.311 -5.962,-13.272 -13.271,-13.272 l -52.719,0 z"
             style="fill:#5f3516;fill-opacity:1;fill-rule:evenodd;stroke:none"
             id="path1448" />
        </g>
        <g
           id="g1450"
           transform="translate(574.2852,332.9038)">
          <path
             d="M 0,0 C 1.044,0 2.08,-0.235 3.076,-0.545 -2.593,-0.892 -7.219,-4.947 -7.505,-9.574 l -2.921,-47.203 -0.202,46.272 C -10.654,-4.771 -5.734,0 0,0"
             style="fill:#faf462;fill-opacity:1;fill-rule:evenodd;stroke:none"
             id="path1452" />
        </g>
        <path
           d="m 535.3,275.808 h 28.56 v 3.656 H 535.3 Z"
           style="fill:#faf462;fill-opacity:1;fill-rule:evenodd;stroke:none"
           id="path1454" />
        <g
           id="g1456"
           transform="translate(511.9727,230.4814)">
          <path
             d="m 0,0 h -52.245 v 50.427 c 0,6.666 -5.454,12.121 -12.121,12.121 h -0.001 c -6.667,0 -12.122,-5.454 -12.122,-12.121 v -61.166 c 0,-8.77 7.155,-15.924 15.925,-15.924 l 60.564,0 z"
             style="fill:#5f3516;fill-opacity:1;fill-rule:evenodd;stroke:none"
             id="path1458" />
        </g>
        <g
           id="g1460"
           transform="translate(447.6055,293.1211)">
          <path
             d="M 0,0 C 1.212,0 2.419,-0.273 3.577,-0.634 -3.016,-1.036 -8.392,-5.752 -8.725,-11.131 l -3.397,-54.881 -0.235,53.798 C -12.387,-5.547 -6.667,0 0,0"
             style="fill:#faf462;fill-opacity:1;fill-rule:evenodd;stroke:none"
             id="path1462" />
        </g>
        <path
           d="m 459.491,226.738 h 35.659 v 4.25 h -35.659 z"
           style="fill:#faf462;fill-opacity:1;fill-rule:evenodd;stroke:none"
           id="path1464" />
        <g
           id="g1466"
           transform="translate(469.7129,353.2524)">
          <path
             d="M 0,0 C 3.951,0 7.182,-3.231 7.182,-7.181 V -23.719 H 38.136 V -39.517 H 2.108 c -5.117,0 -9.29,4.174 -9.29,9.292 V -7.181 C -7.182,-3.231 -3.95,0 0,0"
             style="fill:#5f3516;fill-opacity:1;fill-rule:evenodd;stroke:none"
             id="path1468" />
        </g>
        <g
           id="g1470"
           transform="translate(469.7119,353.3071)">
          <path
             d="m 0,0 c 0.719,0 1.434,-0.162 2.119,-0.376 -3.905,-0.238 -6.955,-3.043 -7.287,-6.219 l -2.013,-19.177 -0.14,18.536 C -7.35,-3.286 -3.949,0 0,0"
             style="fill:#faf462;fill-opacity:1;fill-rule:evenodd;stroke:none"
             id="path1472" />
        </g>
        <path
           d="m 476.755,327.316 h 21.127 v 2.518 h -21.127 z"
           style="fill:#faf462;fill-opacity:1;fill-rule:evenodd;stroke:none"
           id="path1474" />
        <g
           id="g1476"
           transform="translate(117.7637,390.2407)">
          <path
             d="M 0,0 V 0 C -11.589,0 -21.069,-9.481 -21.069,-21.07 V -271.693 H 21.07 V -21.07 C 21.07,-9.481 11.589,0 0,0"
             style="fill:#5f3516;fill-opacity:1;fill-rule:evenodd;stroke:none"
             id="path1478" />
        </g>
        <g
           id="g1480"
           transform="translate(117.7637,390.4023)">
          <path
             d="M 0,0 C -2.107,0 -4.203,-0.477 -6.215,-1.103 5.241,-1.804 14.906,-9.984 15.166,-19.35 l 5.904,-212.017 0.409,210.136 C 21.502,-9.642 11.589,0 0,0"
             style="fill:#faf462;fill-opacity:1;fill-rule:evenodd;stroke:none"
             id="path1482" />
        </g>
        <g
           id="g1484"
           transform="translate(178.0264,332.8247)">
          <path
             d="m 0,0 h -0.002 c -5.733,0 -10.425,-4.692 -10.425,-10.425 v -43.372 h -44.936 v -22.934 h 50.748 c 8.284,0 15.041,6.757 15.041,15.04 v 51.266 C 10.426,-4.691 5.734,0 0,0"
             style="fill:#5f3516;fill-opacity:1;fill-rule:evenodd;stroke:none"
             id="path1486" />
        </g>
        <g
           id="g1488"
           transform="translate(178.0264,332.9038)">
          <path
             d="M 0,0 C -1.044,0 -2.08,-0.235 -3.076,-0.545 2.593,-0.892 7.218,-4.947 7.504,-9.574 l 2.922,-47.203 0.202,46.272 C 10.653,-4.771 5.734,0 0,0"
             style="fill:#faf462;fill-opacity:1;fill-rule:evenodd;stroke:none"
             id="path1490" />
        </g>
        <path
           d="m 135.492,275.808 h 32.311 v 3.656 h -32.311 z"
           style="fill:#faf462;fill-opacity:1;fill-rule:evenodd;stroke:none"
           id="path1492" />
        <g
           id="g1494"
           transform="translate(51.3135,293.0293)">
          <path
             d="m 0,0 h -0.001 c -6.667,0 -12.121,-5.455 -12.121,-12.121 v -62.05 c 0,-8.285 6.756,-15.04 15.04,-15.04 h 61.685 v 26.663 H 12.121 v 50.427 C 12.121,-5.454 6.667,0 0,0"
             style="fill:#5f3516;fill-opacity:1;fill-rule:evenodd;stroke:none"
             id="path1496" />
        </g>
        <g
           id="g1498"
           transform="translate(51.3135,293.1211)">
          <path
             d="M 0,0 C -1.213,0 -2.419,-0.273 -3.577,-0.634 3.015,-1.036 8.392,-5.752 8.725,-11.131 l 3.396,-54.881 0.236,53.798 C 12.386,-5.547 6.667,0 0,0"
             style="fill:#faf462;fill-opacity:1;fill-rule:evenodd;stroke:none"
             id="path1500" />
        </g>
        <path
           d="m 63.435,226.738 h 33.26 v 4.25 h -33.26 z"
           style="fill:#faf462;fill-opacity:1;fill-rule:evenodd;stroke:none"
           id="path1502" />
        <g
           id="g1504"
           transform="translate(73.5166,353.2524)">
          <path
             d="m 0,0 c -3.951,0 -7.183,-3.231 -7.183,-7.181 v -23.044 c 0,-5.118 4.174,-9.292 9.291,-9.292 h 36.168 v 15.798 H 7.182 V -7.181 C 7.182,-3.231 3.951,0 0,0"
             style="fill:#5f3516;fill-opacity:1;fill-rule:evenodd;stroke:none"
             id="path1506" />
        </g>
        <g
           id="g1508"
           transform="translate(73.5166,353.3071)">
          <path
             d="M 0,0 C -0.719,0 -1.433,-0.162 -2.119,-0.376 1.786,-0.614 4.836,-3.419 5.168,-6.595 L 7.182,-25.772 7.321,-7.236 C 7.35,-3.286 3.951,0 0,0"
             style="fill:#faf462;fill-opacity:1;fill-rule:evenodd;stroke:none"
             id="path1510" />
        </g>
        <path
           d="m 80.698,327.316 h 15.997 v 2.518 H 80.698 Z"
           style="fill:#faf462;fill-opacity:1;fill-rule:evenodd;stroke:none"
           id="path1512" />
        <g
           id="g1514"
           transform="translate(237.9624,257.665)">
          <path
             d="m 0,0 h -0.001 c -4.97,0 -9.037,-4.066 -9.037,-9.037 V -116.536 H 9.037 V -9.037 C 9.037,-4.066 4.97,0 0,0"
             style="fill:#5f3516;fill-opacity:1;fill-rule:evenodd;stroke:none"
             id="path1516" />
        </g>
        <g
           id="g1518"
           transform="translate(237.9624,257.7344)">
          <path
             d="M 0,0 C -0.904,0 -1.803,-0.205 -2.667,-0.473 2.248,-0.774 6.393,-4.282 6.504,-8.3 L 9.037,-99.24 9.212,-9.107 C 9.222,-4.137 4.97,0 0,0"
             style="fill:#faf462;fill-opacity:1;fill-rule:evenodd;stroke:none"
             id="path1520" />
        </g>
        <g
           id="g1522"
           transform="translate(263.8091,233.0381)">
          <path
             d="m 0,0 v 0 c -2.459,0 -4.472,-2.013 -4.472,-4.472 v -18.603 h -19.273 v -9.838 h 21.767 c 3.553,0 6.451,2.897 6.451,6.452 V -4.472 C 4.473,-2.013 2.46,0 0,0"
             style="fill:#5f3516;fill-opacity:1;fill-rule:evenodd;stroke:none"
             id="path1524" />
        </g>
        <g
           id="g1526"
           transform="translate(263.8091,233.0713)">
          <path
             d="m 0,0 c -0.446,0 -0.891,-0.101 -1.319,-0.233 2.431,-0.149 4.416,-1.889 4.54,-3.872 L 4.473,-24.354 4.56,-4.505 C 4.57,-2.046 2.46,0 0,0"
             style="fill:#faf462;fill-opacity:1;fill-rule:evenodd;stroke:none"
             id="path1528" />
        </g>
        <path
           d="m 245.566,208.581 h 13.858 v 1.568 h -13.858 z"
           style="fill:#faf462;fill-opacity:1;fill-rule:evenodd;stroke:none"
           id="path1530" />
        <g
           id="g1532"
           transform="translate(209.459,215.9678)">
          <path
             d="m 0,0 v 0 c -2.859,0 -5.199,-2.338 -5.199,-5.199 v -26.614 c 0,-3.554 2.898,-6.452 6.451,-6.452 h 26.459 v 11.438 H 5.2 V -5.199 C 5.2,-2.338 2.861,0 0,0"
             style="fill:#5f3516;fill-opacity:1;fill-rule:evenodd;stroke:none"
             id="path1534" />
        </g>
        <g
           id="g1536"
           transform="translate(209.46,216.0078)">
          <path
             d="M 0,0 C -0.521,0 -1.038,-0.117 -1.534,-0.272 1.293,-0.445 3.6,-2.467 3.743,-4.774 L 5.199,-28.314 5.3,-5.239 C 5.312,-2.378 2.86,0 0,0"
             style="fill:#faf462;fill-opacity:1;fill-rule:evenodd;stroke:none"
             id="path1538" />
        </g>
        <path
           d="m 214.658,187.534 h 14.267 v 1.822 h -14.267 z"
           style="fill:#faf462;fill-opacity:1;fill-rule:evenodd;stroke:none"
           id="path1540" />
        <g
           id="g1542"
           transform="translate(218.9829,241.7998)">
          <path
             d="m 0,0 c -1.694,0 -3.081,-1.387 -3.081,-3.081 v -9.885 c 0,-2.193 1.79,-3.985 3.986,-3.985 h 15.513 v 6.777 H 3.081 v 7.093 C 3.081,-1.387 1.695,0 0,0"
             style="fill:#5f3516;fill-opacity:1;fill-rule:evenodd;stroke:none"
             id="path1544" />
        </g>
        <g
           id="g1546"
           transform="translate(218.9834,241.8242)">
          <path
             d="m 0,0 c -0.308,0 -0.615,-0.07 -0.909,-0.161 1.675,-0.105 2.983,-1.308 3.126,-2.67 l 0.863,-8.224 0.06,7.95 C 3.152,-1.411 1.694,0 0,0"
             style="fill:#faf462;fill-opacity:1;fill-rule:evenodd;stroke:none"
             id="path1548" />
        </g>
        <path
           d="m 222.063,230.675 h 6.861 v 1.08 h -6.861 z"
           style="fill:#faf462;fill-opacity:1;fill-rule:evenodd;stroke:none"
           id="path1550" />
        <g
           id="g1552"
           transform="translate(349.0811,224.0166)">
          <path
             d="M 0,0 H 0.002 C 3.427,0 6.229,-2.803 6.229,-6.228 V -80.31 H -6.229 V -6.228 C -6.229,-2.803 -3.425,0 0,0"
             style="fill:#5f3516;fill-opacity:1;fill-rule:evenodd;stroke:none"
             id="path1554" />
        </g>
        <g
           id="g1556"
           transform="translate(349.0811,224.0654)">
          <path
             d="M 0,0 C 0.623,0 1.243,-0.142 1.838,-0.325 -1.55,-0.533 -4.404,-2.952 -4.483,-5.721 l -1.746,-62.67 -0.12,62.115 C -6.354,-2.852 -3.425,0 0,0"
             style="fill:#faf462;fill-opacity:1;fill-rule:evenodd;stroke:none"
             id="path1558" />
        </g>
        <g
           id="g1560"
           transform="translate(331.2676,207.0449)">
          <path
             d="m 0,0 v 0 c 1.696,0 3.082,-1.387 3.082,-3.081 v -12.82 h 13.284 v -6.78 H 1.365 c -2.449,0 -4.445,1.997 -4.445,4.446 V -3.081 C -3.08,-1.387 -1.693,0 0,0"
             style="fill:#5f3516;fill-opacity:1;fill-rule:evenodd;stroke:none"
             id="path1562" />
        </g>
        <g
           id="g1564"
           transform="translate(331.2676,207.0693)">
          <path
             d="m 0,0 c 0.309,0 0.616,-0.07 0.91,-0.161 -1.675,-0.105 -3.043,-1.302 -3.128,-2.67 L -3.08,-16.783 -3.141,-3.105 C -3.147,-1.411 -1.693,0 0,0"
             style="fill:#faf462;fill-opacity:1;fill-rule:evenodd;stroke:none"
             id="path1566" />
        </g>
        <path
           d="m 334.291,190.191 h 9.551 v 1.08 h -9.551 z"
           style="fill:#faf462;fill-opacity:1;fill-rule:evenodd;stroke:none"
           id="path1568" />
        <g
           id="g1570"
           transform="translate(368.7236,195.2813)">
          <path
             d="m 0,0 v 0 c 1.972,0 3.584,-1.611 3.584,-3.583 v -18.34 c 0,-2.45 -1.997,-4.447 -4.446,-4.447 h -18.234 v 7.883 H -3.583 V -3.583 C -3.583,-1.611 -1.97,0 0,0"
             style="fill:#5f3516;fill-opacity:1;fill-rule:evenodd;stroke:none"
             id="path1572" />
        </g>
        <g
           id="g1574"
           transform="translate(368.7236,195.3096)">
          <path
             d="m 0,0 c 0.358,0 0.715,-0.081 1.058,-0.187 -1.949,-0.12 -3.537,-1.514 -3.637,-3.104 l -1.004,-16.223 -0.07,15.903 C -3.66,-1.64 -1.97,0 0,0"
             style="fill:#faf462;fill-opacity:1;fill-rule:evenodd;stroke:none"
             id="path1576" />
        </g>
        <path
           d="m 355.31,175.686 h 9.832 v 1.258 h -9.832 z"
           style="fill:#faf462;fill-opacity:1;fill-rule:evenodd;stroke:none"
           id="path1578" />
        <g
           id="g1580"
           transform="translate(362.1611,213.084)">
          <path
             d="m 0,0 c 1.168,0 2.123,-0.955 2.123,-2.124 v -6.812 c 0,-1.512 -1.233,-2.745 -2.747,-2.745 h -10.69 v 4.67 h 9.191 v 4.887 C -2.123,-0.955 -1.167,0 0,0"
             style="fill:#5f3516;fill-opacity:1;fill-rule:evenodd;stroke:none"
             id="path1582" />
        </g>
        <g
           id="g1584"
           transform="translate(362.1611,213.0996)">
          <path
             d="M 0,0 C 0.213,0 0.423,-0.048 0.626,-0.11 -0.527,-0.182 -1.43,-1.011 -1.528,-1.949 L -2.123,-7.618 -2.164,-2.14 C -2.173,-0.971 -1.167,0 0,0"
             style="fill:#faf462;fill-opacity:1;fill-rule:evenodd;stroke:none"
             id="path1586" />
        </g>
        <path
           d="m 355.31,205.418 h 4.728 v 0.743 h -4.728 z"
           style="fill:#faf462;fill-opacity:1;fill-rule:evenodd;stroke:none"
           id="path1588" />
      </g>
    </g>
  </g>
</svg>
